<svg xmlns="http://www.w3.org/2000/svg" viewBox="0 0 256 256" fill="none"><title>File Code</title>
  <path fill="currentColor" d="M213.66,82.34l-56-56A8,8,0,0,0,152,24H56A16,16,0,0,0,40,40V216a16,16,0,0,0,16,16H200a16,16,0,0,0,16-16V88A8,8,0,0,0,213.66,82.34ZM160,51.31,188.69,80H160ZM200,216H56V40h88V88a8,8,0,0,0,8,8h48V216ZM117.66,154.34a8,8,0,0,1,0,11.32l-24,24a8,8,0,0,1-11.32-11.32L100.69,160,82.34,141.66a8,8,0,0,1,11.32-11.32Zm56,0-24-24a8,8,0,0,1,11.32-11.32l24,24a8,8,0,0,1,0,11.32l-24,24a8,8,0,0,1-11.32-11.32Z"/></svg>
